HIERARCHY
ROOT Pelvis
{
	OFFSET 0.000000 0.941512 0.000000
	CHANNELS 6 Xposition Yposition Zposition Zrotation Yrotation Xrotation 
	JOINT Pelvis_L_Hip
	{
		OFFSET 0.000000 0.000000 0.000000
		CHANNELS 3 Zrotation Yrotation Xrotation
		JOINT L_Hip
		{
			OFFSET 0.062321 -0.080322 -0.016990
			CHANNELS 3 Zrotation Yrotation Xrotation
			JOINT L_Knee
			{
				OFFSET 0.093051 -0.381305 -0.029784
				CHANNELS 3 Zrotation Yrotation Xrotation
				JOINT L_Ankle
				{
					OFFSET -0.010371 -0.431000 -0.033614
					CHANNELS 3 Zrotation Yrotation Xrotation
					End Site #name: L_Foot
					{
						OFFSET 0.069299 -0.038670 0.119418
					}
				}
			}
		}
	}
	JOINT Pelvis_R_Hip
	{
		OFFSET 0.000000 0.000000 0.000000
		CHANNELS 3 Zrotation Yrotation Xrotation
		JOINT R_Hip
		{
			OFFSET -0.055334 -0.094904 -0.002373
			CHANNELS 3 Zrotation Yrotation Xrotation
			JOINT R_Knee
			{
				OFFSET -0.064207 -0.384370 -0.019592
				CHANNELS 3 Zrotation Yrotation Xrotation
				JOINT R_Ankle
				{
					OFFSET 0.025418 -0.419734 -0.065953
					CHANNELS 3 Zrotation Yrotation Xrotation
					End Site #name: R_Foot
					{
						OFFSET -0.057233 -0.039888 0.132134
					}
				}
			}
		}
	}
	JOINT Pelvis_Spine1
	{
		OFFSET 0.000000 0.000000 0.000000
		CHANNELS 3 Zrotation Yrotation Xrotation
		JOINT Spine1
		{
			OFFSET -0.005562 0.124093 -0.043360
			CHANNELS 3 Zrotation Yrotation Xrotation
			JOINT Spine2
			{
				OFFSET 0.012244 0.139499 0.029894
				CHANNELS 3 Zrotation Yrotation Xrotation
				JOINT Spine3
				{
					OFFSET -0.002556 0.056561 0.009225
					CHANNELS 3 Zrotation Yrotation Xrotation
					JOINT Spine3_Neck
					{
						OFFSET 0.000000 0.000000 0.000000
						CHANNELS 3 Zrotation Yrotation Xrotation
						JOINT Neck
						{
							OFFSET -0.005205 0.217920 -0.024551
							CHANNELS 3 Zrotation Yrotation Xrotation
							End Site #name: Head
							{
								OFFSET 0.002365 0.091850 0.046637
							}
						}
					}
					JOINT Spine3_L_Collar
					{
						OFFSET 0.000000 0.000000 0.000000
						CHANNELS 3 Zrotation Yrotation Xrotation
						JOINT L_Collar
						{
							OFFSET 0.072225 0.116603 -0.009480
							CHANNELS 3 Zrotation Yrotation Xrotation
							JOINT L_Shoulder
							{
								OFFSET 0.115937 -0.058643 -0.021018
								CHANNELS 3 Zrotation Yrotation Xrotation
								JOINT L_Elbow
								{
									OFFSET 0.021994 -0.254722 -0.024492
									CHANNELS 3 Zrotation Yrotation Xrotation
									End Site #name: L_Wrist
									{
										OFFSET 0.048810 -0.240214 0.103329
									}
								}
							}
						}
					}
					JOINT Spine3_R_Collar
					{
						OFFSET 0.000000 0.000000 0.000000
						CHANNELS 3 Zrotation Yrotation Xrotation
						JOINT R_Collar
						{
							OFFSET -0.073372 0.120704 -0.024611
							CHANNELS 3 Zrotation Yrotation Xrotation
							JOINT R_Shoulder
							{
								OFFSET -0.108089 -0.054969 -0.020504
								CHANNELS 3 Zrotation Yrotation Xrotation
								JOINT R_Elbow
								{
									OFFSET -0.033684 -0.260739 0.009889
									CHANNELS 3 Zrotation Yrotation Xrotation
									End Site #name: R_Wrist
									{
										OFFSET -0.067980 -0.232763 0.118463
									}
								}
							}
						}
					}
				}
			}
		}
	}
}
MOTION
Frames: 14
Frame Time: 0.041667
0.000000 0.947856 0.000000 -1.733912 -2.142030 -0.301090 0.000000 0.000000 0.000000 -7.017420 -0.623494 -3.785481 1.374060 -0.308081 5.592095 4.971814 -4.617460 -11.048220 0.000000 0.000000 0.000000 1.515089 3.808410 -21.124793 -1.341780 3.231951 35.352095 -2.055533 0.591776 -5.070841 0.000000 0.000000 0.000000 5.086633 -0.980515 -0.864026 -3.083923 0.323375 -2.481007 -0.591190 1.818423 9.614994 0.000000 0.000000 0.000000 2.736137 -1.809322 6.280497 0.000000 0.000000 0.000000 26.968771 -1.009437 4.842639 -18.332911 -0.951278 -12.255761 -7.691962 -44.583059 -80.554910 0.000000 0.000000 0.000000 -35.864052 4.603037 3.675175 30.842931 0.478969 0.595651 -5.998217 35.697378 -82.594846 
-0.002849 0.948112 -0.004144 -1.705629 -2.156157 0.393444 0.000000 0.000000 0.000000 -6.809391 -0.921896 -4.756207 1.243189 -0.293275 5.648482 4.981351 -4.202186 -10.898763 0.000000 0.000000 0.000000 1.878320 3.537506 -19.459205 -1.963469 3.419712 34.150657 -2.360521 2.052720 -6.608495 0.000000 0.000000 0.000000 5.301545 -0.943948 -1.518028 -3.131470 0.283524 -3.134435 -0.631043 2.033003 9.399776 0.000000 0.000000 0.000000 2.723657 -1.816664 6.474342 0.000000 0.000000 0.000000 26.585294 -0.463627 5.239461 -18.500965 -0.752441 -11.425983 -8.628646 -44.894542 -79.191480 0.000000 0.000000 0.000000 -36.081911 4.863534 3.417328 31.075543 0.373262 0.900410 -5.400079 36.866610 -82.365679 
-0.007137 0.947664 -0.007467 -1.191374 -2.365377 0.446703 0.000000 0.000000 0.000000 -7.158236 -0.975015 -4.963310 1.406993 -0.313792 5.638482 4.824159 -4.028190 -10.573220 0.000000 0.000000 0.000000 1.567156 2.946086 -16.522548 -2.500220 3.266453 30.142114 -2.126845 3.447591 -6.826308 0.000000 0.000000 0.000000 5.210949 -0.938063 -1.430241 -3.432702 0.283367 -3.692134 -0.629900 2.345473 9.339566 0.000000 0.000000 0.000000 2.479188 -1.666189 6.371543 0.000000 0.000000 0.000000 26.673047 -0.141603 5.547740 -18.810700 -0.622433 -10.917056 -8.828158 -44.434887 -78.378411 0.000000 0.000000 0.000000 -36.550579 5.216848 3.121234 31.898381 0.484406 0.689846 -5.087433 37.748949 -82.479769 
-0.015578 0.946590 -0.010178 -1.039781 -2.562057 1.001177 0.000000 0.000000 0.000000 -6.559150 -1.244027 -5.800730 1.108658 -0.281246 5.850427 4.693285 -3.661737 -10.208327 0.000000 0.000000 0.000000 1.836651 2.442439 -13.727646 -3.160587 2.832638 23.558390 -1.829900 3.743295 -6.310453 0.000000 0.000000 0.000000 5.228211 -0.883396 -1.910507 -3.616587 0.277356 -4.097498 -0.527974 2.701783 9.134831 0.000000 0.000000 0.000000 2.105838 -1.450120 6.467568 0.000000 0.000000 0.000000 26.842396 0.130947 5.844230 -18.809397 -0.483417 -10.339899 -9.044498 -44.224295 -77.788528 0.000000 0.000000 0.000000 -36.963784 5.609039 2.760034 32.690179 0.557427 0.598532 -4.367074 39.303972 -82.283587 
-0.025837 0.946399 -0.013274 -0.973001 -2.898265 2.071204 0.000000 0.000000 0.000000 -5.821973 -1.697421 -7.306186 0.928360 -0.269853 6.309650 4.495424 -3.196237 -9.692639 0.000000 0.000000 0.000000 2.195624 2.154858 -12.105874 -3.346477 2.315221 18.066391 -1.341460 4.105026 -5.424501 0.000000 0.000000 0.000000 5.323445 -0.710312 -3.431189 -3.755040 0.330795 -3.629726 -0.433200 2.944027 8.733588 0.000000 0.000000 0.000000 1.743438 -1.244259 6.782209 0.000000 0.000000 0.000000 26.698346 0.333471 5.961099 -18.643844 -0.355277 -9.760271 -9.289666 -44.054775 -77.175291 0.000000 0.000000 0.000000 -37.198716 6.140164 2.287969 33.029587 0.672353 0.397889 -3.080467 41.341734 -81.512217 
-0.035500 0.948459 -0.018036 -0.934703 -3.491587 2.481733 0.000000 0.000000 0.000000 -5.567237 -1.994108 -8.321515 1.520307 -0.377589 7.137604 4.251774 -2.610968 -9.049608 0.000000 0.000000 0.000000 2.645235 2.110098 -11.756229 -3.759182 2.225609 15.898217 -0.426277 5.589708 -4.270467 0.000000 0.000000 0.000000 5.853540 -0.842382 -3.243264 -4.029330 0.334768 -4.050538 -0.541119 3.375544 8.575875 0.000000 0.000000 0.000000 1.264934 -0.930612 6.274074 0.000000 0.000000 0.000000 26.411732 0.938091 6.375324 -18.625199 -0.316733 -9.583884 -9.628986 -43.685047 -76.200487 0.000000 0.000000 0.000000 -37.588346 6.820018 1.670469 33.202525 0.853600 0.010343 -1.456336 43.390038 -80.217503 
-0.045216 0.949986 -0.021948 -0.750748 -3.463110 2.113209 0.000000 0.000000 0.000000 -5.440788 -2.217375 -9.072637 2.103567 -0.531932 8.946674 4.150483 -2.407254 -8.765378 0.000000 0.000000 0.000000 3.053137 1.952170 -10.860692 -3.838022 2.104132 14.593724 -0.164261 6.129441 -4.019533 0.000000 0.000000 0.000000 6.008117 -1.043933 -1.978764 -4.293302 0.298248 -4.934383 -0.517394 3.452232 8.747421 0.000000 0.000000 0.000000 1.061031 -0.804569 6.104886 0.000000 0.000000 0.000000 26.559332 0.925353 6.423890 -19.174551 -0.169073 -9.088866 -9.768836 -43.414143 -75.673425 0.000000 0.000000 0.000000 -38.254871 7.308243 1.231019 33.452444 0.968771 -0.239448 -0.440598 45.033198 -79.743801 
-0.054897 0.949826 -0.026442 -0.612522 -3.009985 1.933120 0.000000 0.000000 0.000000 -5.000013 -2.691328 -10.735872 2.256473 -0.672622 11.842821 4.049349 -2.425082 -8.544048 0.000000 0.000000 0.000000 3.391967 1.781610 -9.943674 -3.719262 1.877384 12.895962 -0.104716 6.193159 -3.946782 0.000000 0.000000 0.000000 6.125561 -1.136543 -1.465848 -4.391109 0.341462 -4.531344 -0.567117 3.386743 8.666147 0.000000 0.000000 0.000000 0.997495 -0.752990 5.629291 0.000000 0.000000 0.000000 26.448392 0.514910 6.114732 -19.347755 -0.103176 -8.846475 -9.162760 -42.744964 -76.059756 0.000000 0.000000 0.000000 -38.456122 7.540274 0.935410 33.281686 1.073425 -0.445986 -0.650290 45.148724 -80.200816 
-0.064030 0.949150 -0.030548 -0.537213 -2.592128 1.849858 0.000000 0.000000 0.000000 -4.346008 -3.191535 -12.572699 1.906271 -0.722182 14.900309 4.337342 -1.899508 -8.777761 0.000000 0.000000 0.000000 3.713146 1.679285 -9.385093 -3.431505 1.672688 11.740542 -0.040587 6.272348 -3.872060 0.000000 0.000000 0.000000 6.151853 -1.184142 -1.155172 -4.247738 0.336067 -4.368506 -0.477828 3.532620 8.838207 0.000000 0.000000 0.000000 0.976435 -0.745391 5.513076 0.000000 0.000000 0.000000 26.187255 0.433037 6.067302 -19.547257 -0.191544 -9.239909 -9.227268 -42.502275 -75.686164 0.000000 0.000000 0.000000 -38.565250 7.434154 0.930867 32.988643 1.045149 -0.380137 -0.934769 44.746887 -80.392905 
-0.072016 0.948375 -0.034629 -0.417233 -2.244460 2.047868 0.000000 0.000000 0.000000 -3.575515 -3.659432 -14.406028 1.218643 -0.657727 17.492008 4.562834 -1.365533 -8.902241 0.000000 0.000000 0.000000 3.861494 1.699384 -9.467724 -3.009942 1.499049 11.150140 -0.027049 6.120160 -3.774251 0.000000 0.000000 0.000000 6.082084 -1.234634 -0.705470 -4.051305 0.286761 -4.676876 -0.380555 3.760587 8.668374 0.000000 0.000000 0.000000 0.910753 -0.726866 5.742639 0.000000 0.000000 0.000000 25.947934 0.465293 6.121381 -19.646810 -0.193396 -9.238008 -9.824677 -42.890635 -75.012914 0.000000 0.000000 0.000000 -38.642247 7.396823 0.849570 32.711237 0.823166 0.177497 -1.171688 44.427566 -80.561563 
-0.079012 0.947557 -0.038577 -0.435382 -2.093116 1.806313 0.000000 0.000000 0.000000 -2.788064 -3.961031 -15.695843 0.506581 -0.554036 20.100920 5.192558 -1.186728 -9.945771 0.000000 0.000000 0.000000 4.161083 1.710411 -9.469279 -2.634345 1.399822 11.149632 -0.024263 6.281847 -3.861483 0.000000 0.000000 0.000000 5.881612 -1.292227 0.032399 -3.738697 0.248438 -4.676775 -0.088856 3.828173 8.730376 0.000000 0.000000 0.000000 0.914493 -0.721344 5.490544 0.000000 0.000000 0.000000 25.771155 0.456411 6.102063 -20.029227 -0.105268 -8.954594 -10.189791 -43.066370 -74.546699 0.000000 0.000000 0.000000 -38.808499 7.566294 0.640114 31.963486 0.870902 0.026825 -1.493297 44.159893 -80.956844 
-0.083822 0.947019 -0.040934 -0.327824 -1.975704 1.579976 0.000000 0.000000 0.000000 -2.467871 -4.224635 -16.772940 -0.139614 -0.435682 22.806464 5.742217 -0.937684 -10.819198 0.000000 0.000000 0.000000 4.330338 1.687288 -9.327119 -2.566611 1.369132 11.022684 0.097936 6.322248 -3.634418 0.000000 0.000000 0.000000 5.719024 -1.327123 0.560991 -3.655837 0.216067 -4.968682 0.076552 3.721573 8.890756 0.000000 0.000000 0.000000 1.173092 -0.893057 5.875099 0.000000 0.000000 0.000000 25.558190 0.287396 5.908427 -20.259638 0.122531 -8.144093 -10.584131 -43.171130 -73.962038 0.000000 0.000000 0.000000 -38.871904 7.841779 0.354092 31.178954 0.929737 -0.186657 -1.336371 44.386742 -80.896478 
-0.086894 0.947038 -0.042054 -0.127974 -2.091027 1.237383 0.000000 0.000000 0.000000 -2.717556 -4.348426 -17.157658 -0.574108 -0.340063 25.591866 6.435170 -0.265282 -11.801544 0.000000 0.000000 0.000000 4.415363 1.655885 -9.157239 -2.746977 1.427810 11.133882 0.162094 6.341036 -3.507734 0.000000 0.000000 0.000000 5.451627 -1.273340 0.633819 -3.579019 0.235380 -4.590362 0.155229 3.685323 9.045881 0.000000 0.000000 0.000000 1.496078 -1.073287 5.692846 0.000000 0.000000 0.000000 25.493850 0.267753 5.854382 -20.338712 0.237759 -7.742765 -10.952068 -43.288534 -73.452290 0.000000 0.000000 0.000000 -38.978532 7.928621 0.306901 30.565830 1.140059 -0.771357 -0.997901 44.909144 -80.724314 
-0.088176 0.947199 -0.041880 -0.089805 -2.493266 1.093866 0.000000 0.000000 0.000000 -3.352201 -4.386235 -17.118560 -0.498219 -0.371784 28.434250 6.783208 0.587011 -12.109313 0.000000 0.000000 0.000000 4.564956 1.687984 -9.287151 -2.958267 1.522440 11.491118 0.337993 6.472694 -3.205254 0.000000 0.000000 0.000000 5.471132 -1.252068 0.457187 -3.580621 0.243652 -4.488668 0.142735 3.762746 9.066514 0.000000 0.000000 0.000000 1.548653 -1.111667 5.920126 0.000000 0.000000 0.000000 25.498386 0.461089 5.970538 -20.469327 0.409963 -7.124569 -10.741643 -43.164793 -73.687195 0.000000 0.000000 0.000000 -39.216433 8.269907 0.037511 30.508814 1.080489 -0.655043 -1.019111 45.127305 -80.909363 
